<mxfile host="app.diagrams.net" agent="Mozilla/5.0 (Windows NT 10.0; Win64; x64) AppleWebKit/537.36 (KHTML, like Gecko) Chrome/140.0.0.0 Safari/537.36 Edg/140.0.0.0" version="28.2.5">
  <diagram name="Página-1" id="RkI1d7vPZcxTIibzzzv6">
    <mxGraphModel dx="1418" dy="786" grid="1" gridSize="10" guides="1" tooltips="1" connect="1" arrows="1" fold="1" page="1" pageScale="1" pageWidth="827" pageHeight="1169" background="#FFFFFF" math="0" shadow="1">
      <root>
        <mxCell id="0" />
        <mxCell id="1" parent="0" />
        <mxCell id="T2djtcUIIECeo06jAY6j-10" value="" style="edgeStyle=orthogonalEdgeStyle;rounded=0;orthogonalLoop=1;jettySize=auto;html=1;" edge="1" parent="1" source="T2djtcUIIECeo06jAY6j-1" target="T2djtcUIIECeo06jAY6j-2">
          <mxGeometry relative="1" as="geometry" />
        </mxCell>
        <mxCell id="T2djtcUIIECeo06jAY6j-1" value="Início" style="ellipse;whiteSpace=wrap;html=1;fillColor=#f8cecc;strokeColor=#b85450;" vertex="1" parent="1">
          <mxGeometry x="354" y="40" width="120" height="80" as="geometry" />
        </mxCell>
        <mxCell id="T2djtcUIIECeo06jAY6j-11" value="" style="edgeStyle=orthogonalEdgeStyle;rounded=0;orthogonalLoop=1;jettySize=auto;html=1;" edge="1" parent="1" source="T2djtcUIIECeo06jAY6j-2" target="T2djtcUIIECeo06jAY6j-3">
          <mxGeometry relative="1" as="geometry" />
        </mxCell>
        <mxCell id="T2djtcUIIECeo06jAY6j-2" value="Ler Idade" style="shape=parallelogram;perimeter=parallelogramPerimeter;whiteSpace=wrap;html=1;fixedSize=1;fillColor=#dae8fc;strokeColor=#6c8ebf;" vertex="1" parent="1">
          <mxGeometry x="354" y="160" width="120" height="60" as="geometry" />
        </mxCell>
        <mxCell id="T2djtcUIIECeo06jAY6j-12" style="edgeStyle=orthogonalEdgeStyle;rounded=0;orthogonalLoop=1;jettySize=auto;html=1;" edge="1" parent="1" source="T2djtcUIIECeo06jAY6j-3" target="T2djtcUIIECeo06jAY6j-5">
          <mxGeometry relative="1" as="geometry">
            <Array as="points">
              <mxPoint x="507" y="340" />
              <mxPoint x="507" y="290" />
            </Array>
          </mxGeometry>
        </mxCell>
        <mxCell id="T2djtcUIIECeo06jAY6j-13" value="&amp;gt;=0, &amp;lt;=17" style="edgeLabel;html=1;align=center;verticalAlign=middle;resizable=0;points=[];" vertex="1" connectable="0" parent="T2djtcUIIECeo06jAY6j-12">
          <mxGeometry x="-0.4444" y="1" relative="1" as="geometry">
            <mxPoint as="offset" />
          </mxGeometry>
        </mxCell>
        <mxCell id="T2djtcUIIECeo06jAY6j-14" style="edgeStyle=orthogonalEdgeStyle;rounded=0;orthogonalLoop=1;jettySize=auto;html=1;" edge="1" parent="1" source="T2djtcUIIECeo06jAY6j-3" target="T2djtcUIIECeo06jAY6j-6">
          <mxGeometry relative="1" as="geometry">
            <Array as="points">
              <mxPoint x="507" y="380" />
              <mxPoint x="507" y="430" />
            </Array>
          </mxGeometry>
        </mxCell>
        <mxCell id="T2djtcUIIECeo06jAY6j-15" value="&amp;gt;=18, &amp;lt;=65" style="edgeLabel;html=1;align=center;verticalAlign=middle;resizable=0;points=[];" vertex="1" connectable="0" parent="T2djtcUIIECeo06jAY6j-14">
          <mxGeometry x="-0.1029" relative="1" as="geometry">
            <mxPoint as="offset" />
          </mxGeometry>
        </mxCell>
        <mxCell id="T2djtcUIIECeo06jAY6j-16" style="edgeStyle=orthogonalEdgeStyle;rounded=0;orthogonalLoop=1;jettySize=auto;html=1;" edge="1" parent="1" source="T2djtcUIIECeo06jAY6j-3" target="T2djtcUIIECeo06jAY6j-7">
          <mxGeometry relative="1" as="geometry">
            <Array as="points">
              <mxPoint x="322" y="340" />
              <mxPoint x="322" y="290" />
            </Array>
          </mxGeometry>
        </mxCell>
        <mxCell id="T2djtcUIIECeo06jAY6j-17" value="&amp;gt;=66, &amp;lt;=149" style="edgeLabel;html=1;align=center;verticalAlign=middle;resizable=0;points=[];" vertex="1" connectable="0" parent="T2djtcUIIECeo06jAY6j-16">
          <mxGeometry x="0.0597" relative="1" as="geometry">
            <mxPoint as="offset" />
          </mxGeometry>
        </mxCell>
        <mxCell id="T2djtcUIIECeo06jAY6j-18" style="edgeStyle=orthogonalEdgeStyle;rounded=0;orthogonalLoop=1;jettySize=auto;html=1;" edge="1" parent="1" source="T2djtcUIIECeo06jAY6j-3" target="T2djtcUIIECeo06jAY6j-8">
          <mxGeometry relative="1" as="geometry">
            <Array as="points">
              <mxPoint x="322" y="380" />
              <mxPoint x="322" y="430" />
            </Array>
          </mxGeometry>
        </mxCell>
        <mxCell id="T2djtcUIIECeo06jAY6j-19" value="&amp;gt;=150" style="edgeLabel;html=1;align=center;verticalAlign=middle;resizable=0;points=[];" vertex="1" connectable="0" parent="T2djtcUIIECeo06jAY6j-18">
          <mxGeometry x="-0.0448" y="-1" relative="1" as="geometry">
            <mxPoint as="offset" />
          </mxGeometry>
        </mxCell>
        <mxCell id="T2djtcUIIECeo06jAY6j-20" value="" style="edgeStyle=orthogonalEdgeStyle;rounded=0;orthogonalLoop=1;jettySize=auto;html=1;" edge="1" parent="1" source="T2djtcUIIECeo06jAY6j-3" target="T2djtcUIIECeo06jAY6j-4">
          <mxGeometry relative="1" as="geometry" />
        </mxCell>
        <mxCell id="T2djtcUIIECeo06jAY6j-21" value="&amp;lt;0" style="edgeLabel;html=1;align=center;verticalAlign=middle;resizable=0;points=[];" vertex="1" connectable="0" parent="T2djtcUIIECeo06jAY6j-20">
          <mxGeometry x="-0.26" y="-2" relative="1" as="geometry">
            <mxPoint as="offset" />
          </mxGeometry>
        </mxCell>
        <mxCell id="T2djtcUIIECeo06jAY6j-3" value="Caso Idade" style="shape=hexagon;perimeter=hexagonPerimeter2;whiteSpace=wrap;html=1;fixedSize=1;fillColor=#e1d5e7;strokeColor=#9673a6;" vertex="1" parent="1">
          <mxGeometry x="354" y="320" width="120" height="80" as="geometry" />
        </mxCell>
        <mxCell id="T2djtcUIIECeo06jAY6j-22" value="" style="edgeStyle=orthogonalEdgeStyle;rounded=0;orthogonalLoop=1;jettySize=auto;html=1;" edge="1" parent="1" source="T2djtcUIIECeo06jAY6j-4" target="T2djtcUIIECeo06jAY6j-9">
          <mxGeometry relative="1" as="geometry" />
        </mxCell>
        <mxCell id="T2djtcUIIECeo06jAY6j-4" value="Escrever &quot;É pá, tens de colaborar um bocado&lt;div&gt;comigo...&quot;&lt;/div&gt;" style="shape=parallelogram;perimeter=parallelogramPerimeter;whiteSpace=wrap;html=1;fixedSize=1;fillColor=#dae8fc;strokeColor=#6c8ebf;" vertex="1" parent="1">
          <mxGeometry x="324" y="500" width="180" height="60" as="geometry" />
        </mxCell>
        <mxCell id="T2djtcUIIECeo06jAY6j-26" style="edgeStyle=orthogonalEdgeStyle;rounded=0;orthogonalLoop=1;jettySize=auto;html=1;" edge="1" parent="1" source="T2djtcUIIECeo06jAY6j-5" target="T2djtcUIIECeo06jAY6j-9">
          <mxGeometry relative="1" as="geometry">
            <Array as="points">
              <mxPoint x="760" y="290" />
              <mxPoint x="760" y="640" />
            </Array>
          </mxGeometry>
        </mxCell>
        <mxCell id="T2djtcUIIECeo06jAY6j-5" value="Escrever&amp;nbsp;&lt;span style=&quot;background-color: transparent; color: light-dark(rgb(0, 0, 0), rgb(255, 255, 255));&quot;&gt;&quot;És um Puto™&lt;/span&gt;&lt;span style=&quot;background-color: transparent; color: light-dark(rgb(0, 0, 0), rgb(255, 255, 255));&quot;&gt;&quot;&lt;/span&gt;" style="shape=parallelogram;perimeter=parallelogramPerimeter;whiteSpace=wrap;html=1;fixedSize=1;fillColor=#dae8fc;strokeColor=#6c8ebf;" vertex="1" parent="1">
          <mxGeometry x="540" y="260" width="180" height="60" as="geometry" />
        </mxCell>
        <mxCell id="T2djtcUIIECeo06jAY6j-25" style="edgeStyle=orthogonalEdgeStyle;rounded=0;orthogonalLoop=1;jettySize=auto;html=1;" edge="1" parent="1" source="T2djtcUIIECeo06jAY6j-6" target="T2djtcUIIECeo06jAY6j-9">
          <mxGeometry relative="1" as="geometry">
            <Array as="points">
              <mxPoint x="630" y="640" />
            </Array>
          </mxGeometry>
        </mxCell>
        <mxCell id="T2djtcUIIECeo06jAY6j-6" value="Escrever&amp;nbsp;&lt;span style=&quot;background-color: transparent; color: light-dark(rgb(0, 0, 0), rgb(255, 255, 255));&quot;&gt;&quot;És um Adulto™&lt;/span&gt;&lt;span style=&quot;background-color: transparent; color: light-dark(rgb(0, 0, 0), rgb(255, 255, 255));&quot;&gt;&quot;&lt;/span&gt;" style="shape=parallelogram;perimeter=parallelogramPerimeter;whiteSpace=wrap;html=1;fixedSize=1;fillColor=#dae8fc;strokeColor=#6c8ebf;" vertex="1" parent="1">
          <mxGeometry x="540" y="400" width="180" height="60" as="geometry" />
        </mxCell>
        <mxCell id="T2djtcUIIECeo06jAY6j-24" style="edgeStyle=orthogonalEdgeStyle;rounded=0;orthogonalLoop=1;jettySize=auto;html=1;" edge="1" parent="1" source="T2djtcUIIECeo06jAY6j-7" target="T2djtcUIIECeo06jAY6j-9">
          <mxGeometry relative="1" as="geometry">
            <Array as="points">
              <mxPoint x="80" y="290" />
              <mxPoint x="80" y="640" />
            </Array>
          </mxGeometry>
        </mxCell>
        <mxCell id="T2djtcUIIECeo06jAY6j-7" value="Escrever&amp;nbsp;&lt;span style=&quot;background-color: transparent; color: light-dark(rgb(0, 0, 0), rgb(255, 255, 255));&quot;&gt;&quot;És um Velhinho™&lt;/span&gt;&lt;span style=&quot;background-color: transparent; color: light-dark(rgb(0, 0, 0), rgb(255, 255, 255));&quot;&gt;&quot;&lt;/span&gt;" style="shape=parallelogram;perimeter=parallelogramPerimeter;whiteSpace=wrap;html=1;fixedSize=1;fillColor=#dae8fc;strokeColor=#6c8ebf;" vertex="1" parent="1">
          <mxGeometry x="110" y="260" width="180" height="60" as="geometry" />
        </mxCell>
        <mxCell id="T2djtcUIIECeo06jAY6j-8" value="Escrever&amp;nbsp;&lt;span style=&quot;background-color: transparent; color: light-dark(rgb(0, 0, 0), rgb(255, 255, 255));&quot;&gt;&quot;És um Dinossauro™&lt;/span&gt;&lt;span style=&quot;background-color: transparent; color: light-dark(rgb(0, 0, 0), rgb(255, 255, 255));&quot;&gt;&quot;&lt;/span&gt;" style="shape=parallelogram;perimeter=parallelogramPerimeter;whiteSpace=wrap;html=1;fixedSize=1;fillColor=#dae8fc;strokeColor=#6c8ebf;" vertex="1" parent="1">
          <mxGeometry x="110" y="400" width="180" height="60" as="geometry" />
        </mxCell>
        <mxCell id="T2djtcUIIECeo06jAY6j-9" value="Fim" style="ellipse;whiteSpace=wrap;html=1;fillColor=#d5e8d4;strokeColor=#82b366;" vertex="1" parent="1">
          <mxGeometry x="354" y="600" width="120" height="80" as="geometry" />
        </mxCell>
        <mxCell id="T2djtcUIIECeo06jAY6j-23" style="edgeStyle=orthogonalEdgeStyle;rounded=0;orthogonalLoop=1;jettySize=auto;html=1;" edge="1" parent="1" source="T2djtcUIIECeo06jAY6j-8" target="T2djtcUIIECeo06jAY6j-9">
          <mxGeometry relative="1" as="geometry">
            <Array as="points">
              <mxPoint x="200" y="640" />
            </Array>
          </mxGeometry>
        </mxCell>
      </root>
    </mxGraphModel>
  </diagram>
</mxfile>
